<?xml version="1.0" encoding="UTF-8" standalone="no"?>
<!DOCTYPE svg PUBLIC "-//W3C//DTD SVG 1.1//EN" "http://www.w3.org/Graphics/SVG/1.1/DTD/svg11.dtd">
<svg width="100%" height="100%" viewBox="0 0 128 128" version="1.1" xmlns="http://www.w3.org/2000/svg" xmlns:xlink="http://www.w3.org/1999/xlink" xml:space="preserve" xmlns:serif="http://www.serif.com/" style="fill-rule:evenodd;clip-rule:evenodd;stroke-linejoin:round;stroke-miterlimit:2;">
    <g transform="matrix(0.677113,0,0,0.677113,4,20.7178)">
        <path d="M142.814,106.403C131.705,113.206 118.897,118.552 104.39,122.439C88.278,126.756 73.092,128.487 58.832,127.631C44.572,126.775 32.422,123.055 22.383,116.471C12.345,109.887 5.576,100.068 2.079,87.014C-1.439,73.886 -0.492,61.98 4.92,51.296C10.332,40.612 19.008,31.371 30.95,23.575C42.892,15.778 56.919,9.721 73.03,5.404C89.068,1.107 104.193,-0.628 118.406,0.201C127.955,0.758 136.568,2.603 144.246,5.736C147.995,7.267 151.521,9.104 154.824,11.249C164.89,17.786 171.672,27.581 175.17,40.635C178.667,53.688 177.697,65.581 172.258,76.312C171.498,77.811 170.675,79.282 169.789,80.726C169.163,77.907 167.906,75.45 166.018,73.353C165.091,72.324 164.061,71.378 162.926,70.517C160.603,68.754 157.845,67.343 154.652,66.285C149.898,64.709 144.602,63.922 138.763,63.922C132.896,63.922 127.58,64.702 122.813,66.264C118.046,67.826 114.257,70.175 111.446,73.312C108.635,76.449 107.23,80.408 107.23,85.188C107.23,89.941 108.635,93.893 111.446,97.043C114.257,100.194 118.046,102.564 122.813,104.153C127.58,105.741 132.896,106.536 138.763,106.536C140.143,106.536 141.493,106.492 142.814,106.403ZM91.994,97.94C90.881,99.135 88.918,100.404 86.107,101.749C83.296,103.093 79.908,104.227 75.943,105.151C71.977,106.074 67.713,106.536 63.15,106.536C59.158,106.536 55.247,106.149 51.417,105.375C47.588,104.601 44.125,103.372 41.028,101.688C37.932,100.004 35.467,97.804 33.634,95.088C31.801,92.372 30.884,89.072 30.884,85.188C30.884,81.25 31.801,77.923 33.634,75.207C35.467,72.491 37.932,70.304 41.028,68.647C44.125,66.991 47.588,65.789 51.417,65.042C55.247,64.295 59.158,63.922 63.15,63.922C67.74,63.922 71.977,64.329 75.861,65.144C79.745,65.959 83.079,67.025 85.863,68.342C88.647,69.659 90.664,71.065 91.913,72.559L81.483,79.403C79.962,77.746 77.654,76.422 74.558,75.431C71.461,74.439 67.7,73.944 63.273,73.944C61.1,73.944 58.907,74.114 56.693,74.453C54.479,74.793 52.449,75.37 50.602,76.184C48.755,76.999 47.268,78.14 46.141,79.607C45.014,81.073 44.45,82.934 44.45,85.188C44.45,87.415 45.014,89.255 46.141,90.708C47.268,92.161 48.755,93.316 50.602,94.171C52.449,95.027 54.479,95.631 56.693,95.984C58.907,96.337 61.1,96.514 63.273,96.514C67.618,96.514 71.387,95.971 74.578,94.884C77.769,93.798 80.017,92.548 81.32,91.136L91.994,97.94ZM138.763,96.351C144.439,96.351 148.839,95.332 151.963,93.295C155.086,91.258 156.648,88.556 156.648,85.188C156.648,81.739 155.079,79.029 151.942,77.06C148.805,75.091 144.412,74.107 138.763,74.107C133.086,74.107 128.666,75.091 125.502,77.06C122.338,79.029 120.756,81.739 120.756,85.188C120.756,88.61 122.338,91.326 125.502,93.336C128.666,95.346 133.086,96.351 138.763,96.351Z"/>
    </g>
</svg>
