<svg xmlns="http://www.w3.org/2000/svg" viewBox="0.578 0.58 40 40" fill="currentColor" aria-hidden="true">
  <path d="M28.22 10.811zm1.515 8.824c.062 3.008 3.256 3.464 3.256 3.412l-.01 5.641-14.291.012v2.28h-4.324l-.021-2.28-6.149.062.01-5.715c2.438-.454 3.132-2.01 3.246-3.412l.57-6.76c.125-1.774 1.494-2.76 2.8-2.925 2.728-.342 3.464-.208 3.464-.239l.031-2.426h4.563l.031 2.437c.923.02 2.686.134 3.453.228.789.093 1.4.415 1.857.86.186.187.352.395.487.623.27.446.415.954.456 1.441zm-1.182 5.3.01-.985c-2.126-.994-2.282-2.208-2.396-3.38l-.487-5.206c-.062-1.338-1.058-1.887-2.012-1.96a38.159 38.159 0 0 0-6.139 0c-.881.01-1.877.529-2.012 1.96l-.477 5.133c-.29 3.09-2.405 3.474-2.405 3.496l-.01.942zm4.438 3.754h-.01l.01-5.643zm-26.464.414c2.893 4.738 8.099 7.912 14.051 7.912 5.672 0 10.67-2.872 13.626-7.247a16.393 16.393 0 0 0 2.8-9.179c0-9.073-7.352-16.436-16.426-16.436-9.063 0-16.426 7.363-16.426 16.436 0 3.111.871 6.026 2.375 8.514zM20.578.68c10.992 0 19.9 8.918 19.9 19.9 0 10.992-8.908 19.9-19.9 19.9-10.982 0-19.9-8.909-19.9-19.9 0-10.982 8.918-19.9 19.9-19.9z" transform="rotate(-23.5 20.578 20.58)"/>
</svg>
